# xmcd
#
# Track frame offsets: 
#        150
#        13880
#        25961
#        35979
#        49637
#        61502
#        73259
#        84482
#        96719
#        106476
#
# Disc length: 1640 seconds
#
# Revision: 0
# Processed by: cddbd v1.5.2PL0 Copyright (c) Steve Scherf et al.
# Submitted via: ExactAudioCopyFreeDBPlugin 1.0
#
DISCID=8b06660a
DTITLE=Various Artist - Vintage Bluegrass
DYEAR=2006
DGENRE=Bluegrass
TTITLE0=Bill Monroe and The Bluegrass Boys - Blue Moon Of Kentucky
TTITLE1=The Delmore Brothers - I'm Lonesome Without You
TTITLE2=Charlie Monroe's Boys - The Great Speckled Bird
TTITLE3=Brown's Ferry Four - Will The Circle Be Unbroken?
TTITLE4=Lester Flatt and Earl Scruggs - I'm Going To Make Heaven My Home
TTITLE5=Ralph Stanley, Ricky Skaggs and Keith Whitley - We'll Be Sweethe
TTITLE5=arts In Heaven
TTITLE6=The Coon Creek Girls - Little Birdie
TTITLE7=The Bailey Brothers - John Henry
TTITLE8=Doc Watson - Rambling Hobo
TTITLE9=The Monroe Brothers - New River Train
EXTD=
EXTT0=
EXTT1=
EXTT2=
EXTT3=
EXTT4=
EXTT5=
EXTT6=
EXTT7=
EXTT8=
EXTT9=
PLAYORDER=
